<svg width="51" height="14" viewBox="0 0 51 14" fill="none" xmlns="http://www.w3.org/2000/svg">
<path d="M0.196 0.399999H5.182C6.49 0.399999 7.648 0.669999 8.656 1.21C9.676 1.75 10.468 2.5 11.032 3.46C11.596 4.408 11.878 5.488 11.878 6.7C11.878 7.912 11.596 8.998 11.032 9.958C10.468 10.906 9.676 11.65 8.656 12.19C7.648 12.73 6.49 13 5.182 13H0.196V0.399999ZM5.11 12.172C6.274 12.172 7.3 11.944 8.188 11.488C9.076 11.02 9.76 10.372 10.24 9.544C10.72 8.716 10.96 7.768 10.96 6.7C10.96 5.632 10.72 4.684 10.24 3.856C9.76 3.028 9.076 2.386 8.188 1.93C7.3 1.462 6.274 1.228 5.11 1.228H1.114V12.172H5.11ZM20.4131 13.09C19.1771 13.09 18.0611 12.814 17.0651 12.262C16.0691 11.698 15.2831 10.93 14.7071 9.958C14.1431 8.986 13.8611 7.9 13.8611 6.7C13.8611 5.5 14.1431 4.414 14.7071 3.442C15.2831 2.47 16.0691 1.708 17.0651 1.156C18.0611 0.591999 19.1771 0.309999 20.4131 0.309999C21.6491 0.309999 22.7651 0.585999 23.7611 1.138C24.7571 1.69 25.5371 2.452 26.1011 3.424C26.6771 4.396 26.9651 5.488 26.9651 6.7C26.9651 7.912 26.6771 9.004 26.1011 9.976C25.5371 10.948 24.7571 11.71 23.7611 12.262C22.7651 12.814 21.6491 13.09 20.4131 13.09ZM20.4131 12.244C21.4691 12.244 22.4231 12.004 23.2751 11.524C24.1271 11.044 24.7991 10.384 25.2911 9.544C25.7831 8.692 26.0291 7.744 26.0291 6.7C26.0291 5.656 25.7831 4.714 25.2911 3.874C24.7991 3.022 24.1271 2.356 23.2751 1.876C22.4231 1.396 21.4691 1.156 20.4131 1.156C19.3571 1.156 18.3971 1.396 17.5331 1.876C16.6811 2.356 16.0091 3.022 15.5171 3.874C15.0251 4.714 14.7791 5.656 14.7791 6.7C14.7791 7.744 15.0251 8.692 15.5171 9.544C16.0091 10.384 16.6811 11.044 17.5331 11.524C18.3971 12.004 19.3571 12.244 20.4131 12.244ZM35.4771 13.09C34.2411 13.09 33.1251 12.814 32.1291 12.262C31.1451 11.71 30.3651 10.948 29.7891 9.976C29.2251 9.004 28.9431 7.912 28.9431 6.7C28.9431 5.488 29.2251 4.396 29.7891 3.424C30.3651 2.452 31.1451 1.69 32.1291 1.138C33.1251 0.585999 34.2411 0.309999 35.4771 0.309999C36.3891 0.309999 37.2291 0.459999 37.9971 0.76C38.7651 1.048 39.4191 1.48 39.9591 2.056L39.3831 2.65C38.3751 1.654 37.0851 1.156 35.5131 1.156C34.4571 1.156 33.4971 1.396 32.6331 1.876C31.7691 2.356 31.0911 3.022 30.5991 3.874C30.1071 4.714 29.8611 5.656 29.8611 6.7C29.8611 7.744 30.1071 8.692 30.5991 9.544C31.0911 10.384 31.7691 11.044 32.6331 11.524C33.4971 12.004 34.4571 12.244 35.5131 12.244C37.0731 12.244 38.3631 11.74 39.3831 10.732L39.9591 11.326C39.4191 11.902 38.7591 12.34 37.9791 12.64C37.2111 12.94 36.3771 13.09 35.4771 13.09ZM46.2756 13.09C45.3516 13.09 44.4696 12.934 43.6296 12.622C42.8016 12.298 42.1536 11.884 41.6856 11.38L42.0996 10.696C42.5436 11.164 43.1376 11.548 43.8816 11.848C44.6376 12.136 45.4296 12.28 46.2576 12.28C47.4576 12.28 48.3636 12.052 48.9756 11.596C49.5876 11.14 49.8936 10.546 49.8936 9.814C49.8936 9.25 49.7316 8.8 49.4076 8.464C49.0836 8.128 48.6816 7.87 48.2016 7.69C47.7216 7.51 47.0736 7.324 46.2576 7.132C45.3336 6.904 44.5896 6.682 44.0256 6.466C43.4736 6.25 42.9996 5.92 42.6036 5.476C42.2196 5.02 42.0276 4.414 42.0276 3.658C42.0276 3.046 42.1896 2.488 42.5136 1.984C42.8376 1.468 43.3296 1.06 43.9896 0.76C44.6616 0.459999 45.4956 0.309999 46.4916 0.309999C47.1876 0.309999 47.8716 0.411999 48.5436 0.616C49.2156 0.82 49.7976 1.096 50.2896 1.444L49.9476 2.182C49.4436 1.834 48.8856 1.57 48.2736 1.39C47.6736 1.21 47.0796 1.12 46.4916 1.12C45.3276 1.12 44.4456 1.354 43.8456 1.822C43.2456 2.29 42.9456 2.896 42.9456 3.64C42.9456 4.204 43.1076 4.654 43.4316 4.99C43.7556 5.326 44.1576 5.584 44.6376 5.764C45.1176 5.944 45.7716 6.136 46.5996 6.34C47.5236 6.568 48.2616 6.79 48.8136 7.006C49.3656 7.222 49.8336 7.552 50.2176 7.996C50.6136 8.428 50.8116 9.016 50.8116 9.76C50.8116 10.372 50.6436 10.93 50.3076 11.434C49.9836 11.938 49.4796 12.34 48.7956 12.64C48.1116 12.94 47.2716 13.09 46.2756 13.09Z" fill="white"/>
</svg>
