<svg width="61" height="85" viewBox="0 0 61 85" fill="none" xmlns="http://www.w3.org/2000/svg">
<path d="M59.701 1.01719C58.8381 5.07084 56.8916 6.87692 49.4666 10.5292C44.1487 13.138 42.2021 14.6832 40.1351 17.894C38.3893 20.6232 37.6468 22.9711 37.5063 26.1217C37.426 27.8676 37.4662 28.1686 37.6668 27.8676C40.5967 23.6735 42.8844 21.3456 45.8544 19.5596C46.5768 19.1181 48.8846 18.0144 50.9716 17.0913C57.2728 14.3421 57.9752 13.9206 58.9987 12.1748C59.982 10.4891 60.3231 8.5626 60.3633 4.44875C60.3833 2.16104 60.3231 0.555638 60.1826 0.254625C59.982 -0.186862 59.9418 -0.126659 59.701 1.01719Z" fill="white"/>
<path d="M58.5973 24.0548C55.6674 24.3156 51.6338 25.4394 49.2458 26.6234C47.54 27.4863 45.2724 29.3125 43.4663 31.2791C41.0984 33.8277 39.2321 36.9181 38.0079 40.2694L37.3457 42.0754L37.2253 54.116C37.1049 65.3137 37.0648 66.3773 36.6434 69.1667C36.2621 71.6551 36.0614 72.4176 35.4794 73.5615C33.6533 77.1937 30.3823 80.244 26.7701 81.6888C23.9205 82.8327 20.5492 83.515 17.7798 83.515C17.1778 83.515 16.7363 83.5551 16.7765 83.6153C16.8367 83.6555 18.2615 83.9966 19.9672 84.3378C22.9372 84.9599 23.2783 85 27.5929 85C31.5261 85 32.389 84.9398 34.2152 84.5585C41.8409 82.913 48.8645 78.8794 54.1623 73.0598C55.8279 71.2136 58.4969 67.6215 59.5605 65.7552L60.4836 64.1498L60.5438 44.4836C60.5639 33.6671 60.5238 24.6167 60.4234 24.3558C60.3231 24.0748 60.1224 23.9344 59.8415 23.9544C59.6007 23.9745 59.0388 24.0146 58.5973 24.0548Z" fill="white"/>
<path d="M0.0401352 36.3763C0.100338 46.9318 0.240811 48.5172 1.4248 53.4136C3.07034 60.1764 6.90325 66.2569 11.88 69.9895C14.5289 71.9962 18.6227 73.8424 21.7733 74.4846C23.4389 74.8257 26.6899 74.9863 26.5293 74.7455C26.4491 74.6251 26.1079 74.4645 25.7467 74.4043C24.7233 74.2036 23.7801 73.5414 23.4189 72.7186C23.1178 72.0564 23.0777 70.6918 23.0777 58.4305V44.8849L22.4958 43.2795C21.091 39.3262 19.004 35.995 16.2347 33.2257C14.7497 31.7407 12.4018 29.9546 10.977 29.2523C8.38825 27.9479 4.89649 27.0047 1.92649 26.804L0 26.6636L0.0401352 36.3763Z" fill="white"/>
</svg>
