<svg width="144" height="33" viewBox="0 0 144 33" fill="none" xmlns="http://www.w3.org/2000/svg">
<path d="M23.178 0.394905C22.843 1.96868 22.0872 2.66986 19.2046 4.08781C17.14 5.10063 16.3843 5.70054 15.5818 6.94709C14.904 8.00666 14.6157 8.9182 14.5612 10.1414C14.53 10.8192 14.5456 10.936 14.6235 10.8192C15.761 9.19088 16.6492 8.28713 17.8022 7.59374C18.0827 7.42233 18.9787 6.99383 19.7889 6.63545C22.2353 5.56809 22.5079 5.40448 22.9053 4.72667C23.287 4.07223 23.4195 3.3243 23.4351 1.72716C23.4429 0.838989 23.4195 0.215714 23.365 0.0988496C23.287 -0.0725511 23.2715 -0.0491783 23.178 0.394905Z" fill="white"/>
<path d="M22.7495 9.33891C21.612 9.44019 20.0461 9.87648 19.1189 10.3361C18.4567 10.6712 17.5763 11.3801 16.8751 12.1436C15.9558 13.1331 15.2313 14.3329 14.756 15.634L14.4989 16.3352L14.4522 21.0097C14.4054 25.3571 14.3898 25.77 14.2262 26.8529C14.0782 27.819 14.0003 28.1151 13.7743 28.5592C13.0654 29.9693 11.7954 31.1535 10.3931 31.7145C9.28676 32.1586 7.97789 32.4235 6.90274 32.4235C6.66901 32.4235 6.49761 32.4391 6.51319 32.4624C6.53656 32.478 7.08972 32.6105 7.75195 32.7429C8.90501 32.9844 9.03745 33 10.7125 33C12.2395 33 12.5745 32.9766 13.2835 32.8286C16.2441 32.1897 18.9709 30.6238 21.0277 28.3644C21.6744 27.6476 22.7106 26.253 23.1235 25.5285L23.4819 24.9052L23.5052 17.2701C23.513 13.0708 23.4974 9.55705 23.4585 9.45577C23.4195 9.3467 23.3416 9.29216 23.2325 9.29995C23.1391 9.30774 22.9209 9.32333 22.7495 9.33891Z" fill="white"/>
<path d="M0.0155819 14.1226C0.0389547 18.2206 0.0934913 18.8361 0.553157 20.7371C1.19201 23.3626 2.68008 25.7233 4.61224 27.1724C5.64064 27.9515 7.22999 28.6682 8.45317 28.9176C9.09982 29.05 10.362 29.1123 10.2996 29.0188C10.2685 28.9721 10.136 28.9098 9.99578 28.8864C9.59844 28.8085 9.23227 28.5514 9.09203 28.232C8.97516 27.9749 8.95958 27.4451 8.95958 22.6848V17.4259L8.73365 16.8026C8.18828 15.2678 7.37802 13.9745 6.30287 12.8994C5.72634 12.3229 4.8148 11.6295 4.26165 11.3568C3.25661 10.8504 1.90099 10.4842 0.74793 10.4063L0 10.3517L0.0155819 14.1226Z" fill="white"/>
<path d="M43.27 26.26C40.7567 26.26 38.798 25.558 37.394 24.154C35.99 22.7327 35.288 20.7047 35.288 18.07V7.8H38.668V17.94C38.668 21.5107 40.2107 23.296 43.296 23.296C46.364 23.296 47.898 21.5107 47.898 17.94V7.8H51.226V18.07C51.226 20.7047 50.524 22.7327 49.12 24.154C47.7333 25.558 45.7833 26.26 43.27 26.26ZM72.1316 7.8V26H69.3496L59.3136 13.676V26H55.9596V7.8H58.7416L68.7776 20.124V7.8H72.1316ZM77.0085 7.8H84.9645C86.9058 7.8 88.6305 8.18133 90.1385 8.944C91.6465 9.68933 92.8165 10.7553 93.6485 12.142C94.4805 13.5113 94.8965 15.0973 94.8965 16.9C94.8965 18.7027 94.4805 20.2973 93.6485 21.684C92.8165 23.0533 91.6465 24.1193 90.1385 24.882C88.6305 25.6273 86.9058 26 84.9645 26H77.0085V7.8ZM84.8085 23.14C86.1431 23.14 87.3131 22.8887 88.3185 22.386C89.3411 21.866 90.1211 21.138 90.6585 20.202C91.2131 19.2487 91.4905 18.148 91.4905 16.9C91.4905 15.652 91.2131 14.56 90.6585 13.624C90.1211 12.6707 89.3411 11.9427 88.3185 11.44C87.3131 10.92 86.1431 10.66 84.8085 10.66H80.3885V23.14H84.8085ZM110.039 21.788H100.939L99.145 26H95.661L103.851 7.8H107.179L115.395 26H111.859L110.039 21.788ZM108.921 19.136L105.489 11.18L102.083 19.136H108.921ZM129.884 16.692H133.082V23.946C132.146 24.6913 131.054 25.2633 129.806 25.662C128.558 26.0607 127.275 26.26 125.958 26.26C124.103 26.26 122.43 25.8613 120.94 25.064C119.449 24.2493 118.279 23.1313 117.43 21.71C116.58 20.2887 116.156 18.6853 116.156 16.9C116.156 15.1147 116.58 13.5113 117.43 12.09C118.279 10.6687 119.449 9.55933 120.94 8.762C122.448 7.94733 124.138 7.54 126.01 7.54C127.535 7.54 128.922 7.79133 130.17 8.294C131.418 8.79667 132.466 9.53333 133.316 10.504L131.184 12.584C129.797 11.1973 128.124 10.504 126.166 10.504C124.883 10.504 123.739 10.7727 122.734 11.31C121.746 11.8473 120.966 12.6013 120.394 13.572C119.839 14.5427 119.562 15.652 119.562 16.9C119.562 18.1133 119.839 19.2053 120.394 20.176C120.966 21.1467 121.746 21.9093 122.734 22.464C123.739 23.0187 124.874 23.296 126.14 23.296C127.561 23.296 128.809 22.984 129.884 22.36V16.692ZM137.54 7.8H140.92V26H137.54V7.8Z" fill="white"/>
</svg>
